<svg version="1" xmlns="http://www.w3.org/2000/svg" width="346.667" height="346.667" viewBox="0 0 260.000000 260.000000"><path d="M0 129.9c0 83.8.3 106 1.3 106.3.6.2 59 .3 129.7.2h128.5l.3-106.2L260 24H0v105.9zm245.6-99c2.3 1 5.4 3.6 7 5.7 2.5 3.2 2.9 4.7 2.9 9.9s-.4 6.7-2.9 9.9c-3.3 4.4-9.5 7.6-14.6 7.6s-11.3-3.2-14.6-7.6c-2.5-3.2-2.9-4.7-2.9-9.9s.4-6.7 2.9-9.9c3.3-4.4 9.5-7.6 14.6-7.6 1.9 0 5.4.9 7.6 1.9zM95 45v11H7V34h88v11zm157 84.8v62.8H8V67h244v62.8zm0 84.7V230h-34v-31h34v15.5z"/><path d="M44.6 118c-.2.5 0 23.5.3 25.5.1.7 28.9 1 88.4 1h88.2v-27h-88.3c-48.6-.1-88.4.2-88.6.5z"/></svg>